/vscmnt/brussel_pixiu_data/_data_brussel/112/vsc11236/PredSimResults/SUBJ06opt3D/trackIG/worker_03.mot
version=1
nRows=8
nColumns=50
inDegrees=yes
endheader
                time	         pelvis_tilt	         pelvis_list	     pelvis_rotation	           pelvis_tx	           pelvis_ty	           pelvis_tz	       hip_flexion_r	     hip_adduction_r	      hip_rotation_r	        knee_angle_r	       ankle_angle_r	         mtp_angle_r	       hip_flexion_l	     hip_adduction_l	      hip_rotation_l	        knee_angle_l	       ankle_angle_l	         mtp_angle_l	    lumbar_extension	      lumbar_bending	     lumbar_rotation	 ercspn_r/activation	 intobl_r/activation	 extobl_r/activation	    abd_r/activation	    add_r/activation	hamstrings_r/activation	bifemsh_r/activation	glut_max_r/activation	iliopsoas_r/activation	rect_fem_r/activation	  vasti_r/activation	gastroc_r/activation	 soleus_r/activation	tib_ant_r/activation	 ercspn_l/activation	 intobl_l/activation	 extobl_l/activation	    abd_l/activation	    add_l/activation	hamstrings_l/activation	bifemsh_l/activation	glut_max_l/activation	iliopsoas_l/activation	rect_fem_l/activation	  vasti_l/activation	gastroc_l/activation	 soleus_l/activation	tib_ant_l/activation	
          1.46520379	         -0.83166872	         -4.69288802	          8.25711371	          1.17216303	          0.95250163	         -0.02071079	         20.67950629	          1.76157180	        -17.03208764	         -3.74053593	         -2.75837157	          0.19515345	        -10.84627289	         -6.58613659	        -11.14127050	        -12.10346123	          9.26324736	         28.71354228	         -6.59535397	          2.72663990	         -6.49121416	          0.19182686	          0.20823173	          0.00999999	          0.00999999	          0.21304209	          0.01520260	          0.00999999	          0.00999999	          0.09566886	          0.04755428	          0.12373545	          0.01244199	          0.00999999	          0.42701413	          0.07427073	          0.00999999	          0.00999999	          0.09879734	          0.00999999	          0.00999999	          0.15982350	          0.02182360	          0.12435502	          0.03709728	          0.00999999	          0.19480301	          0.32655139	          0.01701079	
          1.47985583	         -0.92105460	         -4.53122063	          8.21309959	          1.18715017	          0.95093115	         -0.01918984	         20.14455084	          1.86594994	        -17.01246040	         -3.70996682	         -3.17215296	          0.21489993	        -11.36151664	         -6.66903313	        -11.71360230	        -12.68404936	          8.53796620	         30.23154590	         -6.20702506	          2.93664896	         -6.83509307	          0.18632614	          0.19335051	          0.00999999	          0.00999999	          0.17122808	          0.02388023	          0.00999999	          0.00999999	          0.07689183	          0.03822075	          0.14761144	          0.00999999	          0.00999999	          0.44426021	          0.07841981	          0.00999999	          0.00999999	          0.07940628	          0.00999999	          0.00999999	          0.12845476	          0.02396411	          0.09994772	          0.02981616	          0.00999999	          0.18416587	          0.31176596	          0.01367206	
          1.49450786	         -0.99621304	         -4.37458422	          8.12582238	          1.20263855	          0.94952006	         -0.01765865	         19.44261564	          1.92808700	        -16.86710863	         -3.94099626	         -3.45611880	          0.18647029	        -11.84701950	         -6.77239493	        -12.29483682	        -13.39753225	          7.67684212	         31.77846643	         -5.78109853	          3.19208529	         -7.14465153	          0.14975571	          0.18000068	          0.00999999	          0.00999999	          0.13762096	          0.02942168	          0.00999999	          0.00999999	          0.06180019	          0.03071912	          0.13575707	          0.01244199	          0.01244199	          0.47591414	          0.09039380	          0.00999999	          0.00999999	          0.06382112	          0.00999999	          0.01007105	          0.10324281	          0.01926065	          0.08033087	          0.02396411	          0.01000000	          0.15979530	          0.29272444	          0.01098863	
          1.50915990	         -1.06064984	         -4.24472515	          7.98714825	          1.21839991	          0.94841238	         -0.01599455	         18.63928888	          2.02954879	        -16.87499852	         -4.07599741	         -3.77329879	          0.17619788	        -12.19762546	         -6.94165836	        -12.86813439	        -14.39624572	          6.66857099	         33.35257215	         -5.34294590	          3.49895414	         -7.41150548	          0.12036299	          0.14467175	          0.00999999	          0.02927851	          0.11060994	          0.04755738	          0.00999999	          0.01810439	          0.04967060	          0.02468984	          0.13076543	          0.00999999	          0.00999999	          0.50809957	          0.11831950	          0.00999999	          0.00999999	          0.05129488	          0.00999999	          0.00999999	          0.08870158	          0.01548034	          0.08298790	          0.01926064	          0.00999999	          0.12843210	          0.26783863	          0.00999999	
          1.52381194	         -1.11686683	         -4.15047215	          7.79981990	          1.23416312	          0.94785684	         -0.01414081	         17.83955471	          2.16674634	        -17.01649753	         -4.24878339	         -3.89786360	          0.15375060	        -12.29890388	         -7.21018086	        -13.42330293	        -15.83388649	          5.45136204	         34.95952111	         -4.91901383	          3.85054782	         -7.63413715	          0.11347452	          0.11627686	          0.00999999	          0.07202767	          0.08890041	          0.05239176	          0.00999999	          0.03085364	          0.03992169	          0.01984394	          0.11830113	          0.00999999	          0.00999999	          0.50495246	          0.15681633	          0.00999999	          0.00999999	          0.04122717	          0.02516758	          0.03852796	          0.07129203	          0.01244200	          0.06669980	          0.01548034	          0.00999999	          0.10322459	          0.24199124	          0.00999999	
          1.53846398	         -1.16718201	         -4.07882516	          7.57994099	          1.24971160	          0.94813168	         -0.01211455	         17.07794607	          2.32906425	        -17.13310864	         -4.55568118	         -3.50837320	          0.21017417	        -12.06141420	         -7.58381258	        -13.95322676	        -17.81102021	          3.92261592	         36.57504551	         -4.52409023	          4.22185343	         -7.82175742	          0.10912847	          0.09345507	          0.00999999	          0.08793159	          0.07145183	          0.05859721	          0.00999999	          0.07536606	          0.03208622	          0.01594915	          0.12568638	          0.00999999	          0.00999999	          0.45795438	          0.17460630	          0.00999999	          0.00999999	          0.03313547	          0.11761240	          0.06060323	          0.08169485	          0.00999999	          0.07839683	          0.01244199	          0.00999999	          0.08296459	          0.19652173	          0.00999999	
          1.55311602	         -1.21509312	         -3.98732782	          7.33535479	          1.26488837	          0.94937623	         -0.00996742	         16.29109855	          2.49552432	        -17.11924013	         -4.83738247	         -2.77688946	          0.39440498	        -11.42681973	         -8.03030753	        -14.47110988	        -20.38998355	          2.04586714	         38.02368073	         -4.17082168	          4.56271163	         -7.97659330	          0.10177313	          0.07511254	          0.00999999	          0.09589145	          0.05742790	          0.06869521	          0.00999999	          0.07548234	          0.02578862	          0.01281879	          0.10250165	          0.00999999	          0.00999999	          0.39958042	          0.17708494	          0.00999999	          0.00999999	          0.02663194	          0.15624189	          0.09638883	          0.08028459	          0.00999999	          0.06300981	          0.00999999	          0.00999999	          0.06668104	          0.15795020	          0.00999999	
          1.56776805	         -1.26201293	         -3.82651481	          7.06859378	          1.27959321	          0.95143585	         -0.00775320	         15.45823717	          2.61173299	        -17.00694118	         -4.99737336	         -2.03764134	          0.68639338	        -10.39529167	         -8.50276107	        -15.00022207	        -23.55501797	         -0.09515619	         38.97087901	         -3.87312878	          4.81930500	         -8.09591644	          0.09659970	          0.06037012	          0.00999999	          0.09168722	          0.04615646	          0.07650050	          0.00999999	          0.07706074	          0.02072706	          0.01030283	          0.09264645	          0.00999999	          0.00999999	          0.35241686	          0.16745054	          0.00999999	          0.00999999	          0.02140486	          0.19470619	          0.12400502	          0.09884668	          0.00999999	          0.05462598	          0.00999999	          0.00999999	          0.05359348	          0.12694914	          0.00999999	
